/* XPM */
static char * player2_xpm[] = {
"4 4 7 1",
" 	c #FFFFFF",
".	c #FEFEFE",
"+	c #CB8080",
"@	c #CA7A7A",
"#	c #FBF8F8",
"$	c #CD8383",
"%	c #CE8686",
"    ",
".+@ ",
"#$% ",
"    "};
