/* XPM */
static char * backroom_xpm[] = {
"64 64 21 1",
" 	c #818441",
".	c #808340",
"+	c #878A47",
"@	c #8C8F4C",
"#	c #868946",
"$	c #858845",
"%	c #7E813E",
"&	c #7F823F",
"*	c #8A8D4A",
"=	c #838643",
"-	c #8B8E4B",
";	c #848744",
">	c #828542",
",	c #7D803D",
"'	c #898C49",
")	c #888B48",
"!	c #8E914E",
"~	c #7C7F3C",
"{	c #8F924F",
"]	c #7B7E3B",
"^	c #8D904D",
" .+@+#$%&+++*$&=-;=>,>')=+> +#=#; #';$# &+++*$&=-;=>,>')=+> +#=#",
"+>$#>;);$'$ ;=>)$ $+=;+>#+>&$$;)>.+-+#$&$'$ ;=>)$ $+=;+>#+>&$$;)",
")>;$.=)$#';.=>>'; #';$+ %$;#@)  '=;;&=)##';.=>>'; #';$+ %$;#@)  ",
"; #'$$#.>)#;+;.$'=;;.=)$&$;$-) >)>;$.=)$>)#;+;.$'=;;.=)$&$;$-) >",
"; #'$$#.>)#;+;.$'=;;.=)$)) ,=$;-&&)!'+;~>)#;+;.$'=;;.=)$)) ,=$;-",
")>;$.=)$#';.=>>'; #';$+ .$;;*) =+>$# ;);#';.=>>'; #';$+ .$;;*) =",
"+>$#>;);$'$ ;=>)$ $+=;+>~=#'{*&%@;= ,>*'$'$ ;=>)$ $+=;+>~=#'{*&%",
" .+@+#$%&+++*$&=-;=>,>')''.~>;$@%%){*+;]&+++*$&=-;=>,>')''.~>;$@",
"$>#+ =+;+'>%>=;*# ;+;#)> #=;*+>;$>#+ =+;+'>%>=;*# ;+;#)> #=;*+>;",
")=$$&>)#>+;=)# $# ;#=$)=&$;#@) >)=$$&>)#>+;=)# $# ;#=$)=&$;#@) >",
" .)@#$$& #$;'# ;+ =$>$';#) &$$;' .)@#$$& #$;'# ;+ =$>$';#) &$$;'",
" .)-$;#.$)=.$;>))>=; $'$$+>.##=) .)-$;#.$)=.$;>))>=; $'$$+>.##=)",
"*;;=, ''$)=.$;>))>=; $'$~;$)!'.&*;;=, ''$)=.$;>))>=; $'$~;$)!'.&",
"= +*;;#  #$;'# ;+ =$>$';;+> +#=+= +*;;#  #$;'# ;+ =$>$';;+> +#=+",
"%&'{'#;~>+;=)# $# ;#=$)=''.~>;$-%&'{'#;~>+;=)# $# ;#=$)=''.~>;$-",
"-;;>~.**+'>%>=;*# ;+;#)>]=#'{*&%-;;>~.**+'>%>=;*# ;+;#)>]=#'{*&%",
" .+@+#$%=)$=#; #@$;=%=*'=+> +#=# .+@+#$%=)$=#; #@$;=%=*'=+> +#=#",
"+>$#>;);=)$=#; ##>#);$)=#+>&$$;)+>$#>;);=)$=#; ##>#);$)=#+>&$$;)",
")>;$.=)$=)$=#; #$>#'$$+>%$;#@)  )>;$.=)$=)$=#; #$>#'$$+>%$;#@)  ",
"; #'$$#.=)$=#; #';$$.;'#&$;$-) >; #'$$#.=)$=#; #';$$.;'#&$;$-) >",
"; #'$$#.=)$=#; #';$$.;'#)) ,=$;-; #'$$#.=)$=#; #';$$.;'#)) ,=$;-",
")>;$.=)$=)$=#; #$>#'$$+>.$;;*) =)>;$.=)$=)$=#; #$>#'$$+>.$;;*) =",
"+>$#>;);=)$=#; ##>#);$)=~=#'{*&%+>$#>;);=)$=#; ##>#);$)=~=#'{*&%",
" .+@+#$%=)$=#; #@$;=%=*'''.~>;$@ .+@+#$%=)$=#; #@$;=%=*'''.~>;$@",
"#=#+ >+=$)=.$;=)+ =$>$)=,;;#@)..#=#+ >+=$)=.$;=)+ =$>$)=,;;#@)..",
");$$&>+#;)= #$>++ =$>$)=$)=>)+;+);$$&>+#;)= #$>++ =$>$)=$)=>)+;+",
"  )@#;$%=+;>+$>#+ =$>$)=#)= ++;)  )@#;$%=+;>+$>#+ =$>$)=#)= ++;)",
"> )-$;$&>+;=+$ $+ =$>$)=.$=='+ => )-$;$&>+;=+$ $+ =$>$)=.$=='+ =",
"-;$=, ))>+;=+$ $+ =$>$)=.$=='+ =-;$=, ))>+;=+$ $+ =$>$)=.$=='+ =",
"= )*;;$.=+;>+$>#+ =$>$)=#)= ++;)= )*;;$.=+;>+$>#+ =$>$)=#)= ++;)",
"%&*{'#=~;)= #$>++ =$>$)=$)=>)+;+%&*{'#=~;)= #$>++ =$>$)=$)=>)+;+",
"@$;>~.''$)=.$;=)+ =$>$)=,;;#@)..@$;>~.''$)=.$;=)+ =$>$)=,;;#@)..",
"; #';$# &+++*$&='=;;.=)#;+> +#=+; #';$# &+++*$&='=;;.=)#=+> +#=#",
">.+-+#$&$'$ ;=>))>;$.=)$#) %$$;'>.+-+#$&$'$ ;=>))>;$.=)$#+>&$$;)",
"'=;;&=)##';.=>>'+>$# ;);&$;$@) >'=;;&=)##';.=>>'+>$# ;);%$;#@)  ",
")>;$.=)$>)#;+;.$#>$+>;+=.$;;-) =)>;$.=)$>)#;+;.$#>$+>;+=&$;$-) >",
"&&)!'+;~>)#;+;.$#>$+>;+=''.~>;$-&&)!'+;~>)#;+;.$#>$+>;+=)) ,=$;-",
"+>$# ;);#';.=>>'+>$# ;); #==*+>;+>$# ;);#';.=>>'+>$# ;);.$;;*) =",
"@;= ,>*'$'$ ;=>))>;$.=)$~;$)!'.&@;= ,>*'$'$ ;=>))>;$.=)$~=#'{*&%",
"%%){*+;]&+++*$&='=;;.=)#*'.] ;$@%%){*+;]&+++*$&='=;;.=)#''.~>;$@",
"$>#+ =+;+'>%>=;*# ;+;#)> #=;*+>;$>#+ =+;+'>%>=;*# ;+;#)> #=;*+>;",
")=$$&>)#>+;=)# $# ;#=$)=&$;#@) >)=$$&>)#>+;=)# $# ;#=$)=&$;#@) >",
" .)@#$$& #$;'# ;+ =$>$';#) &$$;' .)@#$$& #$;'# ;+ =$>$';#) &$$;'",
" .)-$;#.$)=.$;>))>=; $'$$+>.##=) .)-$;#.$)=.$;>))>=; $'$$+>.##=)",
"*;;=, ''$)=.$;>))>=; $'$~;$)!'.&*;;=, ''$)=.$;>))>=; $'$~;$)!'.&",
"= +*;;#  #$;'# ;+ =$>$';;+> +#=+= +*;;#  #$;'# ;+ =$>$';;+> +#=+",
"%&'{'#;~>+;=)# $# ;#=$)=''.~>;$-%&'{'#;~>+;=)# $# ;#=$)=''.~>;$-",
"-;;>~.**+'>%>=;*# ;+;#)>]=#'{*&%-;;>~.**+'>%>=;*# ;+;#)>]=#'{*&%",
" .+@+#$%=)$=#; #@$;=%=*'=+> +#=# .+@+#$%=)$=#; #@$;=%=*'=+> +#=#",
"+>$#>;);=)$=#; ##>#);$)=#+>&$$;)+>$#>;);=)$=#; ##>#);$)=#+>&$$;)",
")>;$.=)$=)$=#; #$>#'$$+>%$;#@)  )>;$.=)$=)$=#; #$>#'$$+>%$;#@)  ",
"; #'$$#.=)$=#; #';$$.;'#&$;$-) >; #'$$#.=)$=#; #';$$.;'#&$;$-) >",
"; #'$$#.=)$=#; #';$$.;'#)) ,=$;-; #'$$#.=)$=#; #';$$.;'#)) ,=$;-",
")>;$.=)$=)$=#; #$>#'$$+>.$;;*) =)>;$.=)$=)$=#; #$>#'$$+>.$;;*) =",
"+>$#>;);=)$=#; ##>#);$)=~=#'{*&%+>$#>;);=)$=#; ##>#);$)=~=#'{*&%",
" .+@+#$%=)$=#; #@$;=%=*'''.~>;$@ .+@+#$%=)$=#; #@$;=%=*'''.~>;$@",
")=$;%>)+$)=.$;=)+ =$>$)=,;;#@)..#=#+ >+=$)=.$;=)+ =$>$)=%;$#^'. ",
"= +*;;# ;)= #$>++ =$>$)=$)=>)+;+);$$&>+#;)= #$>++ =$>$)=;+> +#=#",
">.)-$;#.=+;>+$>#+ =$>$)=#)= ++;)  )@#;$%=+;>+$>#+ =$>$)=$+>.##=)",
"#>#+ =+;>+;=+$ $+ =$>$)=.$=='+ => )-$;$&>+;=+$ $+ =$>$)= $;;*) =",
"#>#+ =+;>+;=+$ $+ =$>$)=.$=='+ =-;$=, ))>+;=+$ $+ =$>$)= $;;*) =",
">.)-$;#.=+;>+$>#+ =$>$)=#)= ++;)= )*;;$.=+;>+$>#+ =$>$)=$+>.##=)",
"= +*;;# ;)= #$>++ =$>$)=$)=>)+;+%&*{'#=~;)= #$>++ =$>$)=;+> +#=#",
")=$;%>)+$)=.$;=)+ =$>$)=,;;#@)..@$;>~.''$)=.$;=)+ =$>$)=%;$#^'. "};
