/* XPM */
static char * backroom2_xpm[] = {
"64 64 186 2",
"  	c #A49F4D",
". 	c #B7B260",
"+ 	c #BBB664",
"@ 	c #B8B361",
"# 	c #999442",
"$ 	c #989341",
"% 	c #A39E4C",
"& 	c #BAB563",
"* 	c #A9A452",
"= 	c #9B9644",
"- 	c #97903F",
"; 	c #BFB867",
"> 	c #B1AA59",
", 	c #BDB665",
"' 	c #B4AD5C",
") 	c #9C9544",
"! 	c #BBB463",
"~ 	c #B9B261",
"{ 	c #B7B05F",
"] 	c #A8A150",
"^ 	c #9D9645",
"/ 	c #B3AC5B",
"( 	c #B4B25F",
"_ 	c #B8B663",
": 	c #B0AE5B",
"< 	c #9A9845",
"[ 	c #94923F",
"} 	c #A8A351",
"| 	c #BDB866",
"1 	c #B5B05E",
"2 	c #A29D4B",
"3 	c #B0AB59",
"4 	c #B5AE5D",
"5 	c #948F3D",
"6 	c #9C9745",
"7 	c #A7A552",
"8 	c #B3B15E",
"9 	c #B7B562",
"0 	c #B6B461",
"a 	c #9A9543",
"b 	c #BAB362",
"c 	c #A7A04F",
"d 	c #ACA755",
"e 	c #B1AC5A",
"f 	c #B3AE5C",
"g 	c #ABA654",
"h 	c #9D9846",
"i 	c #958E3D",
"j 	c #AEA756",
"k 	c #C5BE6D",
"l 	c #989140",
"m 	c #9E9746",
"n 	c #BEB766",
"o 	c #9A9342",
"p 	c #9F9847",
"q 	c #9C9A47",
"r 	c #979542",
"s 	c #B4AF5D",
"t 	c #8F8A38",
"u 	c #B6AF5E",
"v 	c #938E3C",
"w 	c #9E9947",
"x 	c #A8A653",
"y 	c #918C3A",
"z 	c #A5A04E",
"A 	c #9F9A48",
"B 	c #A09B49",
"C 	c #B6B15F",
"D 	c #B9B462",
"E 	c #ADA856",
"F 	c #A19A49",
"G 	c #A59E4D",
"H 	c #B8B160",
"I 	c #928B3A",
"J 	c #8F8837",
"K 	c #AAA352",
"L 	c #AFA857",
"M 	c #A9A251",
"N 	c #A39C4B",
"O 	c #B1AF5C",
"P 	c #A09E4B",
"Q 	c #AFAA58",
"R 	c #AAA855",
"S 	c #B5B360",
"T 	c #ABA453",
"U 	c #918A39",
"V 	c #8E8937",
"W 	c #95903E",
"X 	c #A6A14F",
"Y 	c #A7A250",
"Z 	c #AEA957",
"` 	c #ACA554",
" .	c #938C3B",
"..	c #948D3C",
"+.	c #A29B4A",
"@.	c #A2A04D",
"#.	c #9F9D4A",
"$.	c #AAA553",
"%.	c #96913F",
"&.	c #8D8836",
"*.	c #908B39",
"=.	c #ABA956",
"-.	c #A49D4C",
";.	c #A69F4E",
">.	c #A3A14E",
",.	c #A19F4C",
"'.	c #979240",
").	c #968F3E",
"!.	c #8C8534",
"~.	c #999241",
"{.	c #B2AB5A",
"].	c #AFAD5A",
"^.	c #908938",
"/.	c #9B9443",
"(.	c #A19C4A",
"_.	c #A09948",
":.	c #AEAC59",
"<.	c #B0A958",
"[.	c #BEB967",
"}.	c #ADA655",
"|.	c #BCB564",
"1.	c #ADAB58",
"2.	c #9E9C49",
"3.	c #9D9B48",
"4.	c #B2AD5B",
"5.	c #BCB765",
"6.	c #87802F",
"7.	c #C1BA69",
"8.	c #B9B764",
"9.	c #BFBA68",
"0.	c #898432",
"a.	c #A9A754",
"b.	c #BAB865",
"c.	c #C0BB69",
"d.	c #C2BB6A",
"e.	c #C0B968",
"f.	c #C6BF6E",
"g.	c #A6A451",
"h.	c #C2BD6B",
"i.	c #A4A24F",
"j.	c #ACAA57",
"k.	c #C4BD6C",
"l.	c #C1BC6A",
"m.	c #928D3B",
"n.	c #888130",
"o.	c #8E8736",
"p.	c #8B8433",
"q.	c #8B8634",
"r.	c #8A8533",
"s.	c #C3BC6B",
"t.	c #A9A150",
"u.	c #AEA655",
"v.	c #BDB564",
"w.	c #B0A857",
"x.	c #958D3C",
"y.	c #ACA453",
"z.	c #ADA554",
"A.	c #8A8332",
"B.	c #8C8433",
"C.	c #9C9443",
"D.	c #A8A04F",
"E.	c #8D8635",
"F.	c #928A39",
"G.	c #9F9746",
"H.	c #ABA352",
"I.	c #898231",
"J.	c #999140",
"K.	c #A79F4E",
"L.	c #938B3A",
"M.	c #9E9645",
"N.	c #A39B4A",
"O.	c #C2BA69",
"P.	c #B3AB5A",
"Q.	c #9D9544",
"R.	c #A29A49",
"S.	c #C3BE6C",
"T.	c #BFB766",
"U.	c #B6AE5D",
"V.	c #C0B867",
"W.	c #BAB261",
"X.	c #B2B05D",
"Y.	c #A69E4D",
"Z.	c #CCC574",
"`.	c #C7C270",
" +	c #8C8735",
".+	c #C5C06E",
"  . + @ # $ % + . . . @ & . * = - ; > , ' ) ! ~ { ] - ^ / ! { . . ( _ : < [ } . | 1 2 3 ~ 4 4 5 6 7 8 9 0 0 @ . @ 2 a = b , ~ c ",
"= d e f a = 2 @ @ @ . . & . g h i j k > ) l m n ' ] o p ' ! { @ @ ( 9 : q r } s @ 2 t h ' ; u v w x ( 9 0 0 @ @ @ 2 # a { 4 j ) ",
"y w z 3 A B   C D @ . . & @ E B F G H ^ I o J K L M m N ' b H & D ( 9 O P q } Q % y y v F ' L 2 B R S 9 0 0 D @ & % 6 6 / T F U ",
"V W = E   X Y C D @ . . & D Z 2 ] ` p I  .i ....K M +.G ' ~ H + & S 0 O @.#.} $.%.&.= *.U c c d 2 =.S 9 S 0 D D & Y   2 L p l J ",
"v v 5 $.z } X C D @ . . & D Z 2 -.T p U U  ... .;.] -.;./ ~ ~ + & S 0 : >.,.} z '.&.= t J ;.G X 2 =.S 9 S 0 D D @ } * z K ..i ).",
"A '.y Y 2   % 1 D @ . . & @ E B K ^ F !.~.L I  .N c N G {.b ~ & D S 0 ].@.,.Y % V '.Y = ^./.G } B R S 9 0 0 D @ 1 z Y   c U l N ",
"3 (.5 X B B (.C @ @ . . & . g h K _.o ..` ; -. .+.;.F +.> b ~ D @ 0 9 :.#.#.z (.V } C E - ..] Y w x ( 9 0 0 @ @ @ % (.(.] ).+.<.",
"[.$.# Y A A 2 D . . . @ & . * = - 4 /.T H }.|.p F G _._.<.b ~ @ . 0 9 1.2.3.z (.B s 4.f c _.}.'.6 7 8 9 0 0 @ . 5.2 w B ` m T b ",
"W $.+ 1 $ B 2 + @ @ . . & @ d A _.T K b ;.6.;.7.> p -.) / ! ! @ @ ( 8.R 3.2.B Z 9.X 0.z H ] }.  A a.( 9 0 0 D @ 5.2 w %.4 |.T i ",
"h A $.4.(.% B D @ @ . @ & @ g w +.;.{ +./.M ^ +.' +.;.m ' ! ! . . ( 8.=.#.P % e } = (.%.c ; M h w x ( _ 9 9 D @ + B 2 B / ` F m ",
"Q 6 a g % % 6 @ @ @ @ D + @ $.6 F -.L o N n G ^.{._.G ^ / ! ! @ @ S b.=.#.#.2 3 t   [.% /.<.G (.6 7 ( _ 9 9 D @ + h % % }.^ p > ",
"c.} h Y h B 6 D @ @ @ D + @ $.6 ^ c /.T ~ H ! _.}./.F /.{.! |.D & 0 b.R q q h g a & 5.| T l c B 6 7 ( _ _ _ D @ + h A 6 ] _.K d.",
"[.C Q d a (.B @ @ @ @ @ + @ g h m M -.~ ; ' e.H j ^ +./.{.! |.D & 0 b.=.3.3.A d + | E 5.; ` T '.h x ( _ 9 9 D @ D A A $ ` <.u ; ",
"4.D | 1 w Y   C @ @ C . & @ d A N M d.u {., / n u -.c p ' ! b C @ ( b.1.,.>.X s 9.4.& e ~ f.T (.A a.( 9 0 0 D @ . % z 6 4 n b {.",
"e @ + 1 (.g X C @ . 1 1 @ @ Z 2 c ` d.u {.n {.~ b c K _.' b ~ 1 C 8 b.1.>.g.$.@ s 4.h.s / n ` d 2 =.( 0 ( S @ @ @ X * A u , ~ {.",
"5.. f Q A * z D D . s s @ @ Q   ;.<.M , 7./ n 4 { G ] p ' b ~ 1 . ( b.1.@.i.} C D 5.E 5.; L /     j.( S 8 ( @ @ + X } w > u b , ",
"b u H {._.) ` H 7.K ..;.k.~ N +.6 d D D . D D . 1 w $.= d h.@ # $ C l.g a g B . C D @ . D D E h 2 % & 9.Y %.% l.@ g = w 3 . 1 D ",
"~ u ~ / F ^ K 4 j p I ..<.d.L _.6 d D D . D D . + a (.(.s 4.2 '.'.2 e s B (.= | C D @ . D D E h '.d D * 5 m.h Q 1 $.= A e @ C D ",
"~ { b ' F ^ ] <.) ..^ ^.i <.K -.6 d D D . D D . & w w B 1 2 *.y y *.2 s A w w + C D @ . D D E h B e Y v 5 $ %.# Q Y = B 4.D C D ",
"~ H ! ' +.^ ;.K ~.n.) i o.F _.c 6 d D D . D D . e *   a g # &.t *.&.# g # % * 4.C D @ . D D E h z Z $ *.6 v &.5 $.z 6 B 4.& . @ ",
"H ~ |.' +.^ -.;.).n.~.l i ;.G +.6 d D D . D D . 3 d % = Y *.y 6 h m.*.Y a % d 3 C D @ . D D E h $ g '.v h y t 5 z % 6 B 4.+ @ @ ",
"H ~ |.{.F m -.N p.-.> N  ./.c _.6 d D D . D D . @   a % d q.# E E # q.g % a   D C D @ . D D E h = E m.y } E Y r.2 % h A e & @ @ ",
"H ~ ! > _.m -.+...|.{ L p I -.p 6 d D D . D D . & B %.z E 5 * Z Z } v d   %.(.5.C D @ . D D E h 2 g v A f @ D v (.% h w Q & @ @ ",
"H ~ b <.p m -.F j ~ ).}., +.] /.6 d D D . D D . C % # A * % & z % @ 2 } A # z D C D @ . D D E h '.z (.. Z = s e (.% h w Z D @ . ",
"~ H |.T N K ` u ~ l ..- }., c -.(.d . & D & D . @   z 6 1 & * v 5 z @ 5.  z (.D . D D @ D . E % Y % @ Q # y 5 & C } d h Q @ & C ",
"H H , }.N c ;.L - F K p _.j }.K (.d . & D D D @ & A } * 4.A h E } w B Z Y d 2 1 @ D @ @ D . E 2 $.d E w w g (.W 4.z g B f 5.5.. ",
"{ H n L N -._.M ..{.|.{._./.;.G B d . & @ @ D @ D h Y * d %.A [.+ (.'.X   $.(.C @ @ @ @ D . E (.(.* h = Z 9.1 V $.h X w f + & 1 ",
"H H n <.N +.p K j ! { e.' /.+.m A d . & @ . @ @ C (.% $ * Z f @ [.3 * d h (.B + @ @ . . D @ E (.6 % = e [.D | g $.= % 6 f & D 1 ",
"b H , L +.F +.> ~ ! L ; e.j L F w d @ & . C @ @ C   2 v E [.| 4.1 & + 4.# (.2 D @ . C C D @ E B 2 g $.l.c.E D D s (.z w 1 5.5.& ",
"! H |.j F F G H 4 ; H u ~ ! 4 m h g @ & C 1 . D D 2   w s @ . . e D & 3 = } z f D . s 1 D @ d A 2 3 C + D 1 & . D %   h f & & & ",
"! { |.L +.F G ~ H |.e.4 u , ` ) h g D & C s . D D B   2 C s 1 & . . 1 3 w } % 1 D C s 1 D D d w 6 $.& 1 1 9.& . D B (.= 4.@ . . ",
"~ u |.<.+._.N { e.L ~ ~ n n N +.6 g D & 1 s . D 1 B 2 = s 5.+ . [.D . s h B A 5.D C f s & D }.w A z [.D C 5.e + & (.% w C + D @ ",
"h C D 3 '.B } s . . . @ & . * = N N e.b _.l +.f.! ;.i _.u b { 5.+ 8 @ 1 A 5 X + s.<.J F e.u t._.6 * 1 D @ @ @ . 1 } A W 3 & C h ",
"q.2 1 h.% W 6 5.@ @ . . & . g h ~.}.d.M I ..).M 4 c ~.F 4 ! { & & ( D s B $ Y 1 ;._.o.U u.v.w.l p $.C D @ @ @ @ | 6 v (.h.C 2 q.",
"m.5 = f z h B 5.D @ . . & @ E B p j T I ..m ..- ` ] p +.' |.~ @ . S & f (.w } d ).- ) U x.y.z.F F d . D @ @ D @ | B 6   f 6 W m.",
"$ 5 V B (.d $.s D @ . . & D Z 2 M K - A.o /.^./.-.M -.N {.|.b C 1 0 + e % % }   o J ) ).B.C.D.j N E . D . @ D D 1 $.$.B B t 5 $ ",
"W W %.*   } X f D @ . . & D Z 2 -.}.o ^.) ).o.- p ] ;.-.{.|.b C 1 0 + e % z } A i E.- l F.G.H.M N E . D . @ D D s X Y % * %.%.5 ",
"E # t * Y % 2 D D @ . . & @ E B _.` l i }.' G !._.c -.-.{.! b @ . 0 & e % % X A I.c > K J.J.y.-.F d . D @ @ D @ + 2 2 X * *.a E ",
"5.z y % B %   & @ @ . . & . g h +.;.- +.{ |.{ ~.+.-._.-./ b ~ + & S @ e % B   2 ..n 4 u K.L.H.N p $.C D @ @ @ @ +   2 A % m.z 5.",
"% 3 Q Z # w   1 . . . @ & . * = p -.;.u M - }.4 G N m N / ~ ~ | 5.S . 4.2 h % z <.~ !.K v.M.z.m ^ * 1 D @ @ @ . C   h '.Z 3 e 2 ",
"m.(.c.4.'.} h + D @ 1 1 @ C g A - {.n m ~.^ i ' , -.N ^ 4 |.|.& . ( | Q B A z & > - ) - N.O.P./._.g C D @ @ D @ [.#   a 1 | w W ",
"E a B Z   X 6 [.D @ C C @ C g w _.}.] ~.M L ^ _.{.p -.p ' b ! & @ 8 + Q 2 B (.e _.F <.c Q.t.y.F p $.C & D D D @ & A * B g   h $.",
"9.% v * z (.A + @ @ . @ & . $.h _.K o m ~ , ` o M o -._.' H ~ & & 8 & Z % B h * o <., H R.C.t.+.^ * C & D D D @ @ %   (.X %.X 5.",
"@ & Y $.$ = Y 1 @ @ @ D + . $.6 - }.N j n b ! ` K ~.+.p ' H ~ @ & ( + Z 2 w h g M , ~ |.P.K.u.) ^ * C & & & D @ @ % $ 6 E   C + ",
"Q S.D e '.h $.4.@ @ @ D + @ g h ).{.{.b b / e.! ' m F ^ 4 b ~ C D S | Q B h (.s H 7.{.H T.U.P./.m $.C & D D D @ C X # a s 1 c.f ",
"1 D C . 2 z X . @ @ . @ + D d A F {.H |.{ ' ! ~ ! +.N ^ 4 ! b C @ S [.3 B w   & ~ e.' 4 V.W.w.N _.g C D @ @ D @ f * } A f D 5.e ",
"+ e C 1 z g (.+ @ @ C . & D Z (.] T ! ! u b { { ! G c _.4 b ~ . . 8 5.3 % 2 z @ { |.! ' T.v.t.M N E C @ C . @ @ @   Q (.4.D s @ ",
"+ s 9.3 = E A + @ . C C & D Q % ;.G e.|.u ; { , { G T N 4 { H D @ X.& 3 Y z   4.~ ~ n ' e.d.Y.K   Z C . 1 C @ @ 9.= * A s 5.3 [.",
"b u H {._.) ` H 7.' i j d.> L N 6 d D D . D D . & 6 Y h Z [.1 w B C [.Z 6 X = D C D @ . D D j h (.e g l.Q m.. [.@ d 6 A e . C & ",
"~ u ~ / F ^ K 4 { l l U ` Z.T ~.6 d D D . D D . D h % h 4.@ } %.%.} . e 6 % h & C D @ . D D E h '.E `.d m.%.= 1 1 $.6 B 4.@ C & ",
"~ { b ' F ^ ] <._.n.p !...n ] m 6 d D D . D D . . B B h 1 g '.t V %.* s h B 2 D C D @ . D D E h 6 $.@ v &.6 q.h 3 } 6 (.f & . D ",
"~ H ! ' +.^ ;.K ..!.l /.o./.T +.6 d D D . D D . 1   w h 4.a q.y *.q.a e h w z . C D @ . D D E h B E W V 6 W t y $.X h (.f + @ D ",
"H ~ |.' +.^ -.;.- U - ) ^./.` /.6 d D D . D D . s } w w d V  +a 6 &.V g h w Y s C D @ . D D E h # E W *.h W 5 5 X   h (.f + D D ",
"H ~ |.{.F m -.N ^.~./ /.p.G G p 6 d D D . D D . s Y w B Y  +# z Y a &.Y A h X f C D @ . D D E h h Y A q.h 3 6 V %   h B e + D @ ",
"H ~ ! > _.m -.+.U }.b K ~.^ ;.N 6 d D D . D D . C   = 2 Y v $.g d g v X (.=   C C D @ . D D E h (.Y '.# g . 3 t 2   w A 3 & D @ ",
"H ~ b <.p m -.F ;.7.) H ~ i L ~.6 d D D . D D . . (.# % * = C E d 1 a } % # % D C D @ . D D E h '.e t D D a .+% 2   w w Q & D @ ",
"H { b M _.c ] {.7.- ^.~.> |.G ;.(.E . D @ . . C 3 } g a 4.[.E t m.} D s w $.X s @ @ C C & D Q %   % + 3 # *.'.l.s X $.= Z @ & . ",
"~ ~ ; <.;.T K / l F M ^ _.> L K (.d . D @ . . C 5.(.X z f X A   B (.Y Q % d X D @ @ C C & D Z 2 } E 3 A h } (.$ 1 Y E (.s 5.5.. ",
"{ H ; > G ;.N ` ^.' , ` ^ _.T +.B d . D @ . . . [.w X * Z $ h D 1 A a $.X g % + @ @ C . & D Z 2 2 g A 6 g + 4.V d A Y A s + D s ",
"H { , j F p ) c ` |.{ |.> ^ G ^ B d . D @ @ @ . s (.} A }   Z [.l.* B g % X A @ @ @ . @ & D E (.h z h 3 + 1 & * Y # (.= 4.& D 1 ",
"|.~ n L F F F <.! b }.; e.K T +.A g . D @ @ @ @ f 2 z # d 1 D & [.1 e Q h 2 A C @ @ . @ + D E B 2 g $.9.[.g @ D 4.A % h s 5.5.& ",
"b { |.j +.+.c ~ ~ , u ~ ! 4 <.F A g C D @ @ D @ | A w h . D . @ C & 5.f a 2 2 D @ @ @ D + D d A (.Q s & @ 1 + @ 5.z X w s & & D ",
"H ' b j F F G ~ ~ |.7.u 4 b T p A g C D @ @ D @ 9.A A A . @ 1 @ 1 D & f 6 % % & @ @ @ D 5.D d w h $.D s 1 c.5.D + % % 6 4.@ . C ",
"|.H n {.N _.N { ! {.n { ! e.] -.w g C D @ @ D D C % z a 3 D & . + . 1 f w 2 B @ @ @ @ D 5.D d w 2 X [.D . | 4.+ . A (.h 1 + & D "};
