/* XPM */
static char * e1_xpm[] = {
"64 64 158 2",
"  	c #2F5437",
". 	c #2E5236",
"+ 	c #2D5135",
"@ 	c #2D5034",
"# 	c #2F5337",
"$ 	c #2E5336",
"% 	c #2F5336",
"& 	c #2B4D32",
"* 	c #28492F",
"= 	c #26452D",
"- 	c #28482F",
"; 	c #2A4B30",
"> 	c #2C4E33",
", 	c #2B4E33",
"' 	c #2A4C32",
") 	c #2A4D32",
"! 	c #2C4F33",
"~ 	c #2E5235",
"{ 	c #2C5034",
"] 	c #26452C",
"^ 	c #1E3823",
"/ 	c #172E1C",
"( 	c #1C3420",
"_ 	c #203B25",
": 	c #224029",
"< 	c #213C27",
"[ 	c #203B26",
"} 	c #1E3924",
"| 	c #1F3A24",
"1 	c #203C26",
"2 	c #223F28",
"3 	c #25432B",
"4 	c #27482E",
"5 	c #294A30",
"6 	c #1F3B25",
"7 	c #102314",
"8 	c #051008",
"9 	c #0C1C0F",
"0 	c #112516",
"a 	c #132617",
"b 	c #0F2213",
"c 	c #0F2012",
"d 	c #0D1D10",
"e 	c #0E1F12",
"f 	c #0D1E11",
"g 	c #112415",
"h 	c #152B1A",
"i 	c #19311E",
"j 	c #1C3521",
"k 	c #1F3A25",
"l 	c #213D27",
"m 	c #25442B",
"n 	c #1B3320",
"o 	c #0A190D",
"p 	c #020703",
"q 	c #050E06",
"r 	c #061108",
"s 	c #051007",
"t 	c #030A04",
"u 	c #030B05",
"v 	c #030804",
"w 	c #040D06",
"x 	c #09170C",
"y 	c #0B1A0E",
"z 	c #0F2013",
"A 	c #0E2012",
"B 	c #102213",
"C 	c #162C1A",
"D 	c #1D3723",
"E 	c #24422A",
"F 	c #182F1D",
"G 	c #07140A",
"H 	c #010402",
"I 	c #030803",
"J 	c #020603",
"K 	c #030904",
"L 	c #040C05",
"M 	c #030A05",
"N 	c #071309",
"O 	c #0E1F11",
"P 	c #162B1A",
"Q 	c #27472E",
"R 	c #2C4F34",
"S 	c #172D1B",
"T 	c #071108",
"U 	c #010301",
"V 	c #08160B",
"W 	c #0B1A0F",
"X 	c #0C1D10",
"Y 	c #0E1E11",
"Z 	c #0C1B0F",
"` 	c #020502",
" .	c #020803",
"..	c #122617",
"+.	c #203D27",
"@.	c #27462D",
"#.	c #162C1B",
"$.	c #050F07",
"%.	c #0D1D11",
"&.	c #1B3421",
"*.	c #1D3823",
"=.	c #132717",
"-.	c #102214",
";.	c #08140A",
">.	c #1D3722",
",.	c #061208",
"'.	c #051107",
").	c #132818",
"!.	c #223F29",
"~.	c #284930",
"{.	c #2A4C31",
"].	c #23412A",
"^.	c #213E27",
"/.	c #0B1B0F",
"(.	c #142919",
"_.	c #26462D",
":.	c #000100",
"<.	c #152A1A",
"[.	c #25452C",
"}.	c #2A4B31",
"|.	c #25442C",
"1.	c #213E28",
"2.	c #294B31",
"3.	c #061209",
"4.	c #07130A",
"5.	c #27462E",
"6.	c #162D1B",
"7.	c #24432B",
"8.	c #010201",
"9.	c #1C3622",
"0.	c #142818",
"a.	c #061107",
"b.	c #182E1D",
"c.	c #122516",
"d.	c #223E28",
"e.	c #122616",
"f.	c #132718",
"g.	c #0C1C10",
"h.	c #182F1C",
"i.	c #1A3220",
"j.	c #1A3320",
"k.	c #0A180D",
"l.	c #1F3924",
"m.	c #1C3522",
"n.	c #24422B",
"o.	c #294B30",
"p.	c #020602",
"q.	c #2E5136",
"r.	c #0F2113",
"s.	c #1B3521",
"t.	c #2D5235",
"u.	c #19301E",
"v.	c #2B4E32",
"w.	c #142918",
"x.	c #040B05",
"y.	c #234029",
"z.	c #112315",
"A.	c #152A19",
"                                                                                                                                ",
"                                                                                                                                ",
"                                                                                                                                ",
"                                                                                                                                ",
"                                                                                                                                ",
"                                                                                                                                ",
"                                                                                                                                ",
"                                                                                                                                ",
"                                                                                                                                ",
"                                                                                                                                ",
"                                                                                                                                ",
"                                                                                                                                ",
"                                                                                                                                ",
"                                      . + @ + .   # $ % $ $ $ #                                                                 ",
"                                    . & * = - ; > , & ' ) ' , ! + ~ $ $ $ $ $ $ $ # #                                           ",
"                                  # { ] ^ / ( _ : < [ } | } 1 2 3 4 5 ' & & & ' & , @ ~                                         ",
"                                  $ ' 6 7 8 9 0 a b c d e f c g h i j ^ k k k } 6 l m * ! .                                     ",
"                                  . 5 n o p q r s t u p t v t w r x y f c z e f A B C D E 5 { $                                 ",
"                                  . 4 F G H I J J p t p t I K p H J p t L L M v t I N O P | Q R %                               ",
"                                  . 4 S T U K s V W f X Y d Z V w u I t L L t I K `  .L G ..+.' .                               ",
"                                  . @.#.$.U u %.S &.*.*.} D j F =.-.Y e z z e d Z ;.w K J o >.5 ~                               ",
"                                  . Q #.,.H '.).!.~.{.{.) {.5 @.].^.k k k k k D &.S g %./.(.^.) .                               ",
"                                  . _.h q :.q <.[.+ $ % $ $ . + { , & & & & & }.* |.l ^ D 1.4 R %                               ",
"                                  . Q #.,.H ,.#.Q .               % $ $ $ $ $ $ . + & {.2., @ $                                 ",
"                                  . @.#.s U s #.@..                                 # $ $ $                                     ",
"                                  . 4 S 3.H 3.S 4 .                                                                             ",
"                                  . Q / 4.` 4./ Q .   # $ % $ $ $ $ $ $ $ $ # #                                                 ",
"                                  . Q / 4.` 4./ 5.@ @ , & ' ) ' & & & & ' & , + .                                               ",
"                                  . 4 6.3.H 3.C 7.Q 7.l [ } } } k k k k } 1 2 Q & .                                             ",
"                                  . = <.$.8.$.).^ j P -.c d O f e z z e Y B a 9.= { #                                           ",
"                                  + 3 0.$.H a.a b.e N t u p t v u L L u K w q c.d., $                                           ",
"                                  R ^.7 t :.s e.f.r v  .t p t v u L L u K w q c.d., $                                           ",
"                                $ ' } g.p p y h.i.7 Z Z f X O f e z z e Y B a 9.= { #                                           ",
"                                . 5 j.k.p $.g l.: [ >.m.*.*.} } k k k k } 1 2 Q & .                                             ",
"                                + _./ G J N #.n.) ) }.o.{.{.) ' & & & & ' & , + .                                               ",
"                                @ E ).s p.V i * q.$ $ $ $ % $ $ $ $ $ $ $ $ # #                                                 ",
"                              # , l r.t p y &.5 $                                                                               ",
"                              $ & | e t t f } ' $                                                                               ",
"                              $ 5 s.y J p e 6 & . % $ $ $ $ $ $ $ $ % $ # $ $ $ $ $ $ $ $ % $ #                                 ",
"                              t.4 u.V J w 7 [ - ' {.) ' & & & & ' ) ' & ) & ) & & & & ' ) ' v.! + $                             ",
"                              + 7.w.q 8.x.Y F >.} ^ } } k k k k } } } 6 k 6 k k k k k } } } +.y.- > $                           ",
"                              R ].c.u H t G Z d O d O f e z z e f O %.c A r.e A z z e f O f z.A.k 4 +                           ",
"                              { E 0.w H p.I K v t p t v u L L u v t p x.t w K u L L u v t p q N P E ! %                         ",
"                              + 4 &.f w u M t v t p t v u L L u v t p x.t w K u L L u v t p q N P E ! %                         ",
"                              $ , 7.&.).-.c e f O d O f e z z e f O %.c A r.e A z z e f O f z.A.k 4 +                           ",
"                                . , Q ].l 6 k } } ^ } } k k k k } } } 6 k 6 k k k k k } } } +.y.- > $                           ",
"                                  $ + R , & & ' ) {.) ' & & & & ' ) ' & ) & ) & & & & ' ) ' v.! + $                             ",
"                                      # % $ $ $ $ % $ $ $ $ $ $ $ $ % $ # $ $ $ $ $ $ $ $ % $ #                                 ",
"                                                                                                                                ",
"                                                                                                                                ",
"                                                                                                                                ",
"                                                                                                                                ",
"                                                                                                                                ",
"                                                                                                                                ",
"                                                                                                                                ",
"                                                                                                                                ",
"                                                                                                                                ",
"                                                                                                                                ",
"                                                                                                                                ",
"                                                                                                                                ",
"                                                                                                                                ",
"                                                                                                                                ",
"                                                                                                                                ",
"                                                                                                                                "};
