/* XPM */
static char * n1_xpm[] = {
"64 64 304 2",
"  	c #B3B43D",
". 	c #B1B23C",
"+ 	c #B2B33D",
"@ 	c #ADAE3B",
"# 	c #AAAB39",
"$ 	c #A6A738",
"% 	c #ABAC3A",
"& 	c #AEAF3B",
"* 	c #9D9E34",
"= 	c #8F902F",
"- 	c #88892C",
"; 	c #939431",
"> 	c #A2A336",
", 	c #808129",
"' 	c #61621D",
") 	c #525317",
"! 	c #6D6D22",
"~ 	c #919130",
"{ 	c #B2B33C",
"] 	c #87882C",
"^ 	c #5B5C1B",
"/ 	c #31310A",
"( 	c #1B1B04",
"_ 	c #484914",
": 	c #82832A",
"< 	c #A5A637",
"[ 	c #9B9C34",
"} 	c #717223",
"| 	c #3C3C0F",
"1 	c #181803",
"2 	c #1E1F05",
"3 	c #4B4C15",
"4 	c #83842A",
"5 	c #919230",
"6 	c #5E5F1C",
"7 	c #2C2C08",
"8 	c #151502",
"9 	c #2D2D09",
"0 	c #5D5D1B",
"a 	c #8D8E2E",
"b 	c #A9AA39",
"c 	c #A7A838",
"d 	c #86872B",
"e 	c #505016",
"f 	c #202005",
"g 	c #191A03",
"h 	c #3B3B0E",
"i 	c #6D6E22",
"j 	c #999A33",
"k 	c #AFB03B",
"l 	c #4C4D15",
"m 	c #232306",
"n 	c #464713",
"o 	c #797A26",
"p 	c #ACAD3A",
"q 	c #A4A437",
"r 	c #A4A537",
"s 	c #7E7F28",
"t 	c #484813",
"u 	c #1A1B04",
"v 	c #474713",
"w 	c #7C7C28",
"x 	c #A3A437",
"y 	c #8A8B2D",
"z 	c #7D7E28",
"A 	c #84852B",
"B 	c #939430",
"C 	c #A5A638",
"D 	c #81822A",
"E 	c #4D4D15",
"F 	c #242406",
"G 	c #818229",
"H 	c #B0B13C",
"I 	c #5B5B1B",
"J 	c #66671F",
"K 	c #85862B",
"L 	c #9D9D34",
"M 	c #7F8029",
"N 	c #222205",
"O 	c #ABAB3A",
"P 	c #64651E",
"Q 	c #2E2E09",
"R 	c #060601",
"S 	c #191903",
"T 	c #565719",
"U 	c #9A9B33",
"V 	c #A6A638",
"W 	c #4F4F16",
"X 	c #272807",
"Y 	c #82822A",
"Z 	c #AFB03C",
"` 	c #A0A136",
" .	c #7F7F29",
"..	c #4A4A14",
"+.	c #1D1D04",
"@.	c #0A0B01",
"#.	c #080801",
"$.	c #0F0F02",
"%.	c #2A2B08",
"&.	c #494A14",
"*.	c #1F1F05",
"=.	c #1F2005",
"-.	c #4A4B14",
";.	c #A5A537",
">.	c #959631",
",.	c #66661F",
"'.	c #101002",
").	c #080901",
"!.	c #0A0A01",
"~.	c #0B0B01",
"{.	c #2D2E09",
"].	c #595A1A",
"^.	c #85852B",
"/.	c #7A7B27",
"(.	c #464613",
"_.	c #212105",
":.	c #818129",
"<.	c #515117",
"[.	c #0C0C01",
"}.	c #0B0C01",
"|.	c #141402",
"1.	c #35350C",
"2.	c #62631E",
"3.	c #9D9E35",
"4.	c #727324",
"5.	c #3F3F10",
"6.	c #1C1C04",
"7.	c #222306",
"8.	c #9FA035",
"9.	c #797A27",
"0.	c #454512",
"a.	c #090A01",
"b.	c #121202",
"c.	c #1B1C04",
"d.	c #65661F",
"e.	c #33330B",
"f.	c #131402",
"g.	c #262606",
"h.	c #575819",
"i.	c #8B8C2E",
"j.	c #686920",
"k.	c #36360C",
"l.	c #111102",
"m.	c #35360C",
"n.	c #5A5A1A",
"o.	c #AAAB3A",
"p.	c #8C8D2E",
"q.	c #58581A",
"r.	c #292907",
"s.	c #8B8C2D",
"t.	c #272707",
"u.	c #161603",
"v.	c #171703",
"w.	c #414111",
"x.	c #3E3F10",
"y.	c #30300A",
"z.	c #545518",
"A.	c #7D7D28",
"B.	c #A7A738",
"C.	c #1A1A04",
"D.	c #9C9D34",
"E.	c #83842B",
"F.	c #4E4E16",
"G.	c #171803",
"H.	c #181903",
"I.	c #090901",
"J.	c #282807",
"K.	c #525217",
"L.	c #63641E",
"M.	c #31320B",
"N.	c #151503",
"O.	c #2F2F0A",
"P.	c #565619",
"Q.	c #9A9A33",
"R.	c #4C4C15",
"S.	c #202105",
"T.	c #7B7C27",
"U.	c #A2A337",
"V.	c #7E7F29",
"W.	c #494914",
"X.	c #1D1E04",
"Y.	c #2F300A",
"Z.	c #5E5E1C",
"`.	c #5C5D1B",
" +	c #777726",
".+	c #4D4E15",
"++	c #252506",
"@+	c #050500",
"#+	c #292A08",
"$+	c #62621D",
"%+	c #6E6F22",
"&+	c #252606",
"*+	c #4D4E16",
"=+	c #7C7D28",
"-+	c #101102",
";+	c #9E9F35",
">+	c #58591A",
",+	c #1A1A03",
"'+	c #434311",
")+	c #6B6C21",
"!+	c #4B4B15",
"~+	c #262607",
"{+	c #2C2C09",
"]+	c #64641E",
"^+	c #989933",
"/+	c #808029",
"(+	c #3A3B0E",
"_+	c #262707",
":+	c #424311",
"<+	c #686820",
"[+	c #A1A236",
"}+	c #454612",
"|+	c #484913",
"1+	c #86872C",
"2+	c #070801",
"3+	c #585819",
"4+	c #797926",
"5+	c #A8A939",
"6+	c #737424",
"7+	c #1E1E04",
"8+	c #535418",
"9+	c #212205",
"0+	c #282907",
"a+	c #33340B",
"b+	c #676820",
"c+	c #909130",
"d+	c #4B4B14",
"e+	c #767725",
"f+	c #949431",
"g+	c #8E8F2F",
"h+	c #2A2A08",
"i+	c #777725",
"j+	c #898A2D",
"k+	c #2B2B08",
"l+	c #6E6E22",
"m+	c #292908",
"n+	c #38390D",
"o+	c #1C1D04",
"p+	c #2C2D09",
"q+	c #5F601C",
"r+	c #34340C",
"s+	c #161703",
"t+	c #32330B",
"u+	c #6F7023",
"v+	c #37380D",
"w+	c #151603",
"x+	c #575719",
"y+	c #59591A",
"z+	c #31310B",
"A+	c #222206",
"B+	c #979832",
"C+	c #555518",
"D+	c #30310A",
"E+	c #0C0D01",
"F+	c #969732",
"G+	c #7E7E28",
"H+	c #757625",
"I+	c #61611D",
"J+	c #131302",
"K+	c #232406",
"L+	c #4F5016",
"M+	c #989932",
"N+	c #787826",
"O+	c #474813",
"P+	c #67671F",
"Q+	c #141502",
"R+	c #9B9B33",
"S+	c #37370D",
"T+	c #6A6B21",
"U+	c #60611D",
"V+	c #32320B",
"W+	c #36370D",
"X+	c #83832A",
"Y+	c #34350C",
"Z+	c #63631E",
"`+	c #7B7B27",
" @	c #050501",
".@	c #5F601D",
"+@	c #6B6B21",
"@@	c #717123",
"#@	c #3A3A0E",
"$@	c #030300",
"%@	c #5D5E1C",
"&@	c #404010",
"*@	c #010100",
"=@	c #555619",
"-@	c #949531",
";@	c #121302",
">@	c #737324",
",@	c #000000",
"'@	c #929330",
")@	c #535318",
"!@	c #0D0D01",
"~@	c #040400",
"{@	c #505117",
"]@	c #959632",
"^@	c #5F5F1C",
"/@	c #87872C",
"(@	c #111202",
"_@	c #707023",
":@	c #8B8B2D",
"<@	c #AFAF3B",
"[@	c #696920",
"}@	c #8A8A2D",
"                                                                                                                                ",
"                                                                                                                                ",
"                                                                                                                                ",
"                                                                                                      . . .                     ",
"                                                                                                  + @ # $ % & +                 ",
"                                                                                                + % * = - ; > &                 ",
"                                                                                                & * , ' ) ! ~ # .               ",
"                                                                                              { $ ] ^ / ( _ : < .               ",
"                                                                                              & [ } | 1 2 3 4 $ .               ",
"                                                                                            + % 5 6 7 8 9 0 a b +               ",
"                                                                                            + c d e f g h i j k                 ",
"                                      . . .                                                 . $ : l m f n o > .                 ",
"                                  + p b q c % .                                             . r s t ( u v w x .                 ",
"                                  p * y z A B x & +                                         . C D E F F l G C .                 ",
"                                H x 4 I | 3 J K L % +                                       { < M l N N l M < {                 ",
"                              + O 5 P Q R S / T s U % +                                     . V D W X X W Y V .                 ",
"                              Z `  ...+.@.#.$.%.) s L &                                     . r z &.*.=.-.M ;..                 ",
"                            + p >.,./ '.).!.~.$.{.].^.> H                                   . > /.(.*._.3 :.$ .                 ",
"                            { $ K <.+.[.}.#.$.'.|.1.2.- > & +                               H 3.4.5.6.7.W K c {                 ",
"                            Z 8.9.0.( $.'.a.1 ( b.c.| 2.^.L % +                             @ >.d.e.f.g.h.i.# +                 ",
"                          + @ >.j.k.b.[.l.[.f 9 *.R 6.m.n.s U o.+                         + b p.q.r.S e.d.>.@                   ",
"                          + b s.q.t.u.v.u.[.t.w.x.F u.v.y.z.A.U % +                       . B.4 l 2 C.x.} D.Z                   ",
"                          . B.E.F._.G.*.H.I.J.K.L.e M.6.N.O.P.z Q.# H                     . C D R.N S.t T.U..                   ",
"                          . r V.W.+.v.m X.'.Y.Z.A T.`.k.6.u./ T  +; ;.H                   . C , .+++++l M < .                   ",
"                          . < M -._.( ++( @+#+$+5 [ 4 0 e.v.( Y.3 %+= r H                 . C , .+&+&+*+, C .                   ",
"                          . r =+n S N.F *.-+y.P U # ;+:.>+/ u.,+N '+)+p.x & +             . < V.!+N m R.D C .                   ",
"                          . <  ..._.( ~++.~.{+]+^+Z p D./+^ (+_+C.m :+<+d D.b +           . [+o }++.*.3 D $ .                   ",
"                          . r z |++.H.~+f -+/ ,.[ Z + % * 1+<+t &+2+_.(+3+4+>.5++         Z ;+6+w.7+t.8+- 5+{                   ",
"                          . C , 3 9+6.0+7.|.a+b+U H   + @ r c+4...J.( u X d+e+j % +       @ f+,.e.l.t.`.g+% +                   ",
"                          . C , *+++*.h+m |.a+b+U H       H c ; i+) / ,+R ++<.=+D.p +   + 5+j+h.k+2 h l+U &                     ",
"                          . C , *+++*.m+_.l./ ,.[ Z         { 5+j  .0 n+( N.y.].M [ % + . x 9.}+o+*.|+=+[+.                     ",
"                          . C , 3 N 6.t.+.~.p+]+^+H           + p ;+A q+r+s+( t+q.A.Q.o.Z 3.u+v+w+J.x+y # +                     ",
"                          . r s W.X.S &+*.-+y.P U k             + k ` 4 y+Y.|.,+O.z.T.j c [ b+z+b.9 6 f+@                       ",
"                          . C , R.A+6.~+( @+#+2.B+H                 & D.s C+D+C.,+Q K.o B+5 L.9 E+7 $+F+Z                       ",
"                          { r V...6.v.~+*.-+y.P U k                 + % U G+y+1.( l.h+.+H+A I+D+J+D+]+U k                       ",
"                          . $ : W ~+*.r.7+~.{+]+^+H                   + % D./+h.{+'.b.K+L+i I h+R k+L.M+H                       ",
"                          { r V...6.v.t.f l./ ,.[ Z                     + p [ N+O+6.~.#.Q ].z./ N.e.P+D.k                       ",
"                          . C , R.A++.m+m Q+r+j.R+H                       + o.; ! | ,+!.N :+v h+$./ P+j H                       ",
"                          . r s W.7+S J.F u.S+T+D.H                         . $ i.U+V+J+v.h+t+&+N.r+j.D.Z                       ",
"                          . C , 3 N +.h+++u.W+T+D.H                           H x X+>+{.|.u.( N.#.k+P j H                       ",
"                          . C , *+++*.#+m |.Y+j.U H                             & * z 8+p+b.!.~.#.J.Z+U Z                       ",
"                          . C , *+F +._+7+-+/ j.[ Z                             + % j `+e ++~. @R ++.@j H                       ",
"                          . C , !+*.v.*.1 ~.D++@D.H                               + # B+@@#@$.$@$@*.%@^+H                       ",
"                          . r z }+1 $.Q+l.v.&@N+> .                                 + 5+d ..b.*@*@S =@M+Z                       ",
"                          . < s 0.G.~.}.~.m x+] c +                                   @ -@8+u.*@*@;@W c+Z                       ",
"                          { C  .'+l. @R u.x.>@U &                                     H M+Z.1 ,@*@l.3 '@@                       ",
"                          { b j+)@*.!@w+e.L.a c .                                     . x u+{.~@,@'.{@~ k                       ",
"                          + p ]@+@| g.h ^@/@> H                                         b s.C+t.(@/ j.3.k                       ",
"                            H r p._@Z+} :@[+<@                                          . ` : ]+P.[@}@$ +                       ",
"                            + & x j -@R+< &                                               H U.U 5 [ r H                         ",
"                              + Z @ % @ H                                                   . & @ & .                           ",
"                                  + + +                                                                                         ",
"                                                                                                                                ",
"                                                                                                                                ",
"                                                                                                                                ",
"                                                                                                                                ",
"                                                                                                                                ",
"                                                                                                                                ",
"                                                                                                                                ",
"                                                                                                                                ",
"                                                                                                                                ",
"                                                                                                                                ",
"                                                                                                                                ",
"                                                                                                                                "};
