/* XPM */
static char * s1_xpm[] = {
"64 64 224 2",
"  	c #3D67B4",
". 	c #3D67B3",
"+ 	c #3C66B3",
"@ 	c #3C66B2",
"# 	c #3D66B3",
"$ 	c #3C65B0",
"% 	c #3A62AC",
"& 	c #3961AA",
"* 	c #385FA7",
"= 	c #385FA6",
"- 	c #375EA5",
"; 	c #385EA6",
"> 	c #3A62AB",
", 	c #3B64AF",
"' 	c #3B64B0",
") 	c #3860A8",
"! 	c #355A9F",
"~ 	c #305393",
"{ 	c #2D4E8B",
"] 	c #2A4982",
"^ 	c #294881",
"/ 	c #28477E",
"( 	c #2B4B85",
"_ 	c #2F5190",
": 	c #34599E",
"< 	c #3C65B1",
"[ 	c #3961AB",
"} 	c #2E4F8D",
"| 	c #254277",
"1 	c #1E3663",
"2 	c #192F57",
"3 	c #14284B",
"4 	c #15284B",
"5 	c #142649",
"6 	c #15284C",
"7 	c #16294E",
"8 	c #15294E",
"9 	c #162A4F",
"0 	c #1D3561",
"a 	c #28457C",
"b 	c #325698",
"c 	c #375EA4",
"d 	c #305392",
"e 	c #26447A",
"f 	c #1C3460",
"g 	c #122344",
"h 	c #09152D",
"i 	c #071228",
"j 	c #040B1C",
"k 	c #050F22",
"l 	c #040D1E",
"m 	c #060F23",
"n 	c #061126",
"o 	c #061125",
"p 	c #050E21",
"q 	c #050D1F",
"r 	c #0B1932",
"s 	c #182E55",
"t 	c #294780",
"u 	c #355B9F",
"v 	c #375DA4",
"w 	c #213B6C",
"x 	c #14274A",
"y 	c #0A1831",
"z 	c #040C1E",
"A 	c #020714",
"B 	c #040B1B",
"C 	c #030919",
"D 	c #061024",
"E 	c #030A19",
"F 	c #0D1C38",
"G 	c #213C6D",
"H 	c #3A63AD",
"I 	c #203A69",
"J 	c #10213F",
"K 	c #0D1D39",
"L 	c #102241",
"M 	c #132648",
"N 	c #15294D",
"O 	c #102140",
"P 	c #233E71",
"Q 	c #325799",
"R 	c #325597",
"S 	c #233F72",
"T 	c #030816",
"U 	c #0C1B36",
"V 	c #162B50",
"W 	c #203969",
"X 	c #254175",
"Y 	c #28467D",
"Z 	c #28467E",
"` 	c #254276",
" .	c #213B6B",
"..	c #1E3764",
"+.	c #223D6E",
"@.	c #2D4D89",
"#.	c #365CA2",
"$.	c #29477F",
"%.	c #020613",
"&.	c #050F21",
"*.	c #112343",
"=.	c #315495",
"-.	c #315494",
";.	c #325697",
">.	c #2F5291",
",.	c #0A1730",
"'.	c #02050F",
").	c #050E20",
"!.	c #112241",
"~.	c #365DA3",
"{.	c #3B63AE",
"].	c #0D1B37",
"^.	c #2E508D",
"/.	c #355BA0",
"(.	c #233F71",
"_.	c #0E1D39",
":.	c #28477F",
"<.	c #34599C",
"[.	c #203A6A",
"}.	c #081329",
"|.	c #1A315A",
"1.	c #2E508E",
"2.	c #33589B",
"3.	c #1F3866",
"4.	c #0A1830",
"5.	c #020612",
"6.	c #09162E",
"7.	c #33579A",
"8.	c #0A172F",
"9.	c #01040E",
"0.	c #1E3765",
"a.	c #335799",
"b.	c #34599D",
"c.	c #1F3967",
"d.	c #020510",
"e.	c #3B65B0",
"f.	c #0B1933",
"g.	c #030715",
"h.	c #1F3865",
"i.	c #08142B",
"j.	c #010206",
"k.	c #071227",
"l.	c #1A3059",
"m.	c #325699",
"n.	c #34589C",
"o.	c #355A9E",
"p.	c #061023",
"q.	c #192F58",
"r.	c #203968",
"s.	c #1F3867",
"t.	c #2A4983",
"u.	c #244073",
"v.	c #0D1C37",
"w.	c #071126",
"x.	c #09162D",
"y.	c #0B1831",
"z.	c #0C1A34",
"A.	c #08142A",
"B.	c #0B1832",
"C.	c #0C1A35",
"D.	c #0F203E",
"E.	c #162A50",
"F.	c #315595",
"G.	c #3960A9",
"H.	c #192E56",
"I.	c #01040D",
"J.	c #030817",
"K.	c #030918",
"L.	c #305292",
"M.	c #27447B",
"N.	c #020713",
"O.	c #132547",
"P.	c #233E70",
"Q.	c #1C335E",
"R.	c #2F518F",
"S.	c #27457C",
"T.	c #0F1F3C",
"U.	c #2B4B86",
"V.	c #182D54",
"W.	c #2C4D89",
"X.	c #223D6F",
"Y.	c #10203F",
"Z.	c #264378",
"`.	c #01030B",
" +	c #213C6C",
".+	c #345A9E",
"++	c #1B325C",
"@+	c #0B1A34",
"#+	c #2C4C88",
"$+	c #071329",
"%+	c #365CA1",
"&+	c #2B4A84",
"*+	c #112242",
"=+	c #030917",
"-+	c #0E1E3C",
";+	c #355BA1",
">+	c #2D4E8A",
",+	c #172C52",
"'+	c #0E1E3B",
")+	c #132649",
"!+	c #305291",
"~+	c #2C4C87",
"{+	c #2E4F8C",
"]+	c #2A4A83",
"^+	c #08152B",
"/+	c #071226",
"(+	c #030A1A",
"_+	c #2C4D88",
":+	c #1F3968",
"<+	c #1C345F",
"[+	c #0E1D3A",
"}+	c #040A1A",
"|+	c #0C1B35",
"1+	c #294981",
"2+	c #243F72",
"3+	c #020715",
"4+	c #132546",
"5+	c #203B6A",
"6+	c #27457B",
"7+	c #182D55",
"8+	c #142749",
"9+	c #122445",
"0+	c #27447A",
"a+	c #264479",
"                                                                                                                                ",
"                                                                                                                                ",
"                                                                                                                                ",
"                                                                                                                                ",
"                                                                                                                                ",
"                                                                                                                                ",
"                                                                                                                                ",
"                                                                                                                                ",
"                                                                                                                                ",
"                                                                                                                                ",
"                                                                                                                                ",
"                                                                                                                                ",
"                                                    . + + @ @ @ @ @ @ @ #                                                       ",
"                                                @ $ % & * = - ; ; ; = * > , @                                                   ",
"                                            # ' ) ! ~ { ] ^ / ^ ^ ^ ] ( _ : & <                                                 ",
"                                          < [ : } | 1 2 3 4 5 6 7 8 6 9 0 a b & @                                               ",
"                                        ' c d e f g h i j k l m n o p q r s t u , .                                             ",
"                                      < v } w x y z A B C p l m n D q E q F G b H #                                             ",
"                                    # * _ I J q C A n K L 5 M 6 N 3 g K y O P Q H #                                             ",
"                                    % R S g p T m U V W X Y Z ^ ^ Z `  ...+.@.#., .                                             ",
"                                  < #.$.9 n %.&.*...^ =.! - - ; ; v ! b -.;.#.% @                                               ",
"                                . % >...,.'.).!.w } ~.% @ @ @ @ @ @ $ {.% H , @                                                 ",
"                                @ ; ^ 6 ).E ]...^.- <                 . # # .                                                   ",
"                                < /.(._.%.p 3 :.#.<                                                                             ",
"                                < <.[.r %.}.|.1.%                                                                               ",
"                                $ 2.3.4.5.6.0 R ,                                                                               ",
"                                < 7.3.8.9.6.0.a.<                                                                               ",
"                                $ b.I U E U W b.$                                                                               ",
"                                < 7.c.y d.y c.7.<                                                                               ",
"                                e.b.c.f.g.f.0.7.% < $ < < $ < e.< e.< $ < < @ + .                                               ",
"                                < a.h.i.j.k.l.^ m.a.n.2.2.n.a.2.b 2.a.n.n.! #.* % < #                                           ",
"                                e.o.[.f.5.p.O q.1 ..3.r.r.3...0.1 0...s.[.+.| t.~ /.% <                                         ",
"                                @ ! u.v.9.g.p.w.,.x.y.z.z.y.x.y A.y x.B.C.F D.E.h.Z F.* <                                       ",
"                                @ G.( H.k.9.5.j.%.I.%.J.J.%.I.%.j.%.I.%.J.K.K.k f.9 S L.= @                                     ",
"                                  H 2.M.H.v.f.A.y x.y.z.z.y.x.y A.y x.y.f.,.D N.T k.O.P.-.% .                                   ",
"                                  # & 2.( u.[...0...3.r.r.3...0.1 0...3.3.Q.3 y q B k 3 Y v @                                   ",
"                                    # H G.! o.Q 2.a.n.2.2.n.a.2.b 2.a.2.b R.S.Q.T.q I.8.c.R ,                                   ",
"                                        @ @ e.< e.< $ < < $ < e.< e.< $ $ > u U.l.A.'.o V.W.G..                                 ",
"                                                                            , n.X.].5.T Y.Z.v @                                 ",
"                                                                            # ) ] 6 q `.8. +.+<                                 ",
"                                                                              H >.++i.5.4.r.<.$                                 ",
"                                                                              $ b ..r T @+r.2.<                                 ",
"                                                                              < 2.s.@+T z.r.2.<                                 ",
"                                                                              , b ..4.N.r r.n.$                                 ",
"                                                                        . < {.~.#+q.$+I.4.I n.<                                 ",
"                                              . # @ @ @ # #         @ ' ) %+~ &+c.*+&.=+-+u.;+<                                 ",
"                                            @ , [ ) - = * > {.$ $ H * 7.>+Z...,+'+o 5.C )+Z v @                                 ",
"                                          @ % /.!+~+t ^ t.{+-.7.7.!+]+P.l.*+^+/+(+g.T y 1 _ > #                                 ",
"                                        . , #._+r.s x x x H.0 r.:+<+9 [+$+}+j.(+j w.|+l.1+/.'                                   ",
"                                        # H 7.2+O A.q p E o 4.U U 8.k A 3+E p.K 4+q.5+( b.H .                                   ",
"                                        # H 7.2+O A.q q A N.J.C C T %.3+k.T.V. .6+>+;.v H #                                     ",
"                                        . , #._+r.7+8+9+T.U U F F U ].!.2 P.U.m.#.& H < .                                       ",
"                                          @ % /.!+~+Z 0+2++. .w w w P.a+>+a.) {.@ #                                             ",
"                                            @ , [ ) - ~./.o.b.b.b.b.! ~.G., +                                                   ",
"                                              . # @ @ @ @ < < < < < < @ #                                                       ",
"                                                                                                                                ",
"                                                                                                                                ",
"                                                                                                                                ",
"                                                                                                                                ",
"                                                                                                                                ",
"                                                                                                                                ",
"                                                                                                                                ",
"                                                                                                                                ",
"                                                                                                                                "};
