/* XPM */
static char * w1_xpm[] = {
"64 64 194 2",
"  	c #B43D3D",
". 	c #B33D3D",
"+ 	c #B23C3C",
"@ 	c #B03C3C",
"# 	c #AB3A3A",
"$ 	c #A73838",
"% 	c #AC3A3A",
"& 	c #A43737",
"* 	c #943131",
"= 	c #862B2B",
"- 	c #882C2C",
"; 	c #963131",
"> 	c #B13C3C",
", 	c #AB3939",
"' 	c #933030",
") 	c #712323",
"! 	c #511717",
"~ 	c #551818",
"{ 	c #782626",
"] 	c #9B3333",
"^ 	c #AE3B3B",
"/ 	c #AF3B3B",
"( 	c #AA3939",
"_ 	c #A33737",
": 	c #A63737",
"< 	c #AD3A3A",
"[ 	c #7E2828",
"} 	c #4D1515",
"| 	c #210505",
"1 	c #280707",
"2 	c #5D1B1B",
"3 	c #902F2F",
"4 	c #A23636",
"5 	c #7C2727",
"6 	c #842A2A",
"7 	c #963232",
"8 	c #9F3535",
"9 	c #722323",
"0 	c #3B0E0E",
"a 	c #170303",
"b 	c #2A0808",
"c 	c #5C1B1B",
"d 	c #912F2F",
"e 	c #6E2222",
"f 	c #461313",
"g 	c #451212",
"h 	c #521717",
"i 	c #732424",
"j 	c #A93939",
"k 	c #B33C3C",
"l 	c #9D3434",
"m 	c #6B2121",
"n 	c #360C0C",
"o 	c #310A0A",
"p 	c #611D1D",
"q 	c #A83838",
"r 	c #8B2D2D",
"s 	c #541818",
"t 	c #1A0404",
"u 	c #1B0404",
"v 	c #220505",
"w 	c #471313",
"x 	c #772525",
"y 	c #692020",
"z 	c #340C0C",
"A 	c #330B0B",
"B 	c #661F1F",
"C 	c #993232",
"D 	c #923030",
"E 	c #671F1F",
"F 	c #350C0C",
"G 	c #1F0505",
"H 	c #150202",
"I 	c #2D0909",
"J 	c #5F1C1C",
"K 	c #9C3434",
"L 	c #320B0B",
"M 	c #130202",
"N 	c #9B3434",
"O 	c #B03B3B",
"P 	c #A03535",
"Q 	c #812929",
"R 	c #2F0909",
"S 	c #842B2B",
"T 	c #993333",
"U 	c #641E1E",
"V 	c #0D0101",
"W 	c #A13636",
"X 	c #6F2222",
"Y 	c #401010",
"Z 	c #1D0404",
"` 	c #4B1414",
" .	c #A63838",
"..	c #651E1E",
"+.	c #A83939",
"@.	c #7A2727",
"#.	c #6C2121",
"$.	c #742424",
"%.	c #752525",
"&.	c #421111",
"*.	c #1C0404",
"=.	c #491414",
"-.	c #7F2929",
";.	c #A53737",
">.	c #2B0808",
",.	c #060101",
"'.	c #461212",
").	c #621D1D",
"!.	c #8D2E2E",
"~.	c #3D0F0F",
"{.	c #4E1616",
"].	c #9E3434",
"^.	c #6A2020",
"/.	c #140202",
"(.	c #2E0909",
"_.	c #5E1C1C",
":.	c #8E2E2E",
"<.	c #581A1A",
"[.	c #090101",
"}.	c #0F0202",
"|.	c #3A0E0E",
"1.	c #762525",
"2.	c #A33636",
"3.	c #5A1A1A",
"4.	c #2C0808",
"5.	c #1A0303",
"6.	c #591A1A",
"7.	c #8C2E2E",
"8.	c #9E3535",
"9.	c #370C0C",
"0.	c #100202",
"a.	c #250606",
"b.	c #050101",
"c.	c #290707",
"d.	c #682020",
"e.	c #7A2626",
"f.	c #431111",
"g.	c #160303",
"h.	c #390E0E",
"i.	c #6D2121",
"j.	c #983232",
"k.	c #4E1515",
"l.	c #230606",
"m.	c #0C0101",
"n.	c #030000",
"o.	c #200505",
"p.	c #9A3333",
"q.	c #240606",
"r.	c #501616",
"s.	c #832A2A",
"t.	c #3C0E0E",
"u.	c #070101",
"v.	c #010000",
"w.	c #020000",
"x.	c #8F2F2F",
"y.	c #2F0A0A",
"z.	c #190303",
"A.	c #822A2A",
"B.	c #561818",
"C.	c #180303",
"D.	c #8C2D2D",
"E.	c #4C1515",
"F.	c #441212",
"G.	c #953131",
"H.	c #872C2C",
"I.	c #7B2727",
"J.	c #561919",
"K.	c #340B0B",
"L.	c #3C0F0F",
"M.	c #080101",
"N.	c #792626",
"O.	c #651F1F",
"P.	c #3F1010",
"Q.	c #260606",
"R.	c #7D2828",
"S.	c #481313",
"T.	c #0E0101",
"U.	c #4A1414",
"V.	c #270707",
"W.	c #702323",
"X.	c #2C0909",
"Y.	c #1E0404",
"Z.	c #370D0D",
"`.	c #120202",
" +	c #4B1515",
".+	c #601D1D",
"++	c #220606",
"@+	c #150303",
"#+	c #4F1616",
"$+	c #531818",
"%+	c #411111",
"&+	c #852B2B",
"*+	c #722424",
"=+	c #973232",
"                                                                                                                                ",
"                                                                                                                                ",
"                                                                                                                                ",
"                                                                                                                                ",
"                                                                                                                                ",
"                                                                                                                                ",
"                                                                                                                                ",
"                                                                                                                                ",
"                                                                                                                                ",
"                                                                                                                                ",
"                                                                                                                                ",
"                                                                                                                                ",
"                                                                                                                                ",
"                                                                                                                                ",
"                                                                                                                                ",
"                              . + + .                                                                                           ",
"                            @ # $ $ % @                                                                                         ",
"                          @ & * = - ; $ >                                                 + + > + .                             ",
"                        . , ' ) ! ~ { ] ^ .                                           . / ( _ _ : < >                           ",
"                        + & [ } | 1 2 3 # .                                           / 4 3 [ 5 6 7 $ >                         ",
"                        > 8 9 0 a b c d % .                                         + % * e f g h i ' j k                       ",
"                        > l m n a o p * ^                                           + q r s t u v w x l /                       ",
"                        > ] y z a A B C @                                           + # D E F G H I J d % .                     ",
"                        @ K B L M o B N @                       + @ / O +             / P Q ~ R M t } S $ .                     ",
"                        > T U I V I U T >                     > j W ] 8 $ /           . % T X Y Z | ` Q  .+                     ",
"                        O ] ..o M o U ] O                   + +.' @.#.$.r W O           + 8 %.&.*.Z =.-.;.+                     ",
"                        > C U >.,.b p ; @                   / K %.'.I 0 ).!.( .         / C e ~.Z | {.S $ +                     ",
"                        O ].^.A /.(._.D %                 . # :.<.| [.}.|.1.2.+       . ( r 3.4.5.1 6.7.( .                     ",
"                        + 8.) 9.0.a.{.-.W O               k q 6 '.M b.,.c.d.].>       + 4 e.f.a g.h.i.j.^ .                     ",
"                        +  .Q k.l.*.n ).- 4 ^ .           +  .5 0 m.n.n.o._.p.>       / ] #.n /.q.r.s.& >                       ",
"                        . # D E F u Z t.).s.] ( +         + & x F u.v.w.u 3.; O     . % x.J y.z.z B * %                         ",
"                          > 4 A.B.4.0.o.F ~ { D ;.O       + P ) L u.v.v.C.! D.j + + @ W [ E.a.| '.{ W >                         ",
"                          . < ] @.! I C.g.1 =.m r W ^     / j.B >.u.w.n.g.F.x G.W ;.8 !...n a l.h H.q .                         ",
"                            . ( j.I.J.K.u }.q.L.).H.P < + # x.6.v [.M.u.}.I ! i.N.[ N.O.F.o.,.b ).D < .                         ",
"                              . ( K A.).P.Q.a 5.h.J Q p.& l R.S.a T.u Z 5.5.>.~.g U.S.~.V.z.| =.I.W @                           ",
"                                . < W 7.W.} X.z.Y.Z.s X R.R...~.Y.*.A ~.X.a `.Z Z v q.o.t G Y #.' (                             ",
"                                    > $ G.$.U.l./.u V.t.U.k.P.1 5.l. +.+h A u o.Z v a.V.4.g y :.: +                             ",
"                                      + j * X g a.5.}.u Z ++o.@+l.f.#.S R.U #+` S.E.#+$+_.$.x.2.@                               ",
"                                        >  .3 i s Y I v V 0.g.a.%+d.!.8 ].' &+Q [ Q A.H.x.p.$ /                                 ",
"                                          @ $ j.= %.p } Z.A t.$+W.!.2./ / % q  .;. . .q ( ^ >                                   ",
"                                            + ^ $ 8 3 A.*+e %.S =+: O     . . + + + + + . .                                     ",
"                                              . . > %  .P 8 P $ < +                                                             ",
"                                                      + > @ > k .                                                               ",
"                                                                                                                                ",
"                                                                                                                                ",
"                                                                                                                                ",
"                                                                                                                                ",
"                                                                                                                                ",
"                                                                                                                                ",
"                                                                                                                                ",
"                                                                                                                                ",
"                                                                                                                                ",
"                                                                                                                                ",
"                                                                                                                                ",
"                                                                                                                                ",
"                                                                                                                                ",
"                                                                                                                                ",
"                                                                                                                                ",
"                                                                                                                                ",
"                                                                                                                                ",
"                                                                                                                                ",
"                                                                                                                                ",
"                                                                                                                                ",
"                                                                                                                                "};
